PathFileType	4	(X/Y/Z)	C:\Users\WrightLab\Desktop\Jo\P5V116.trc
DataRate	CameraRate	NumFrames	NumMarkers	Units	OrigDataRate	OrigDataStartFrame	OrigNumFrames
100.00	100.00	       13	19	mm	100.00	247	       492
Frame#	Time	Headset_Front			Headset_Back			Headset_Left			Headset_Right			Left_Shoulder			Right_Shoulder			Sternum			C7			Left Elbow			Right Elbow			Left Wrist			Right Wrist			Left ASIS			Right ASIS			S2			Left Knee			Right Knee			Left Ankle			Right Ankle			
		X1	Y1	Z1	X2	Y2	Z2	X3	Y3	Z3	X4	Y4	Z4	X5	Y5	Z5	X6	Y6	Z6	X7	Y7	Z7	X8	Y8	Z8	X9	Y9	Z9	X10	Y10	Z10	X11	Y11	Z11	X12	Y12	Z12	X13	Y13	Z13	X14	Y14	Z14	X15	Y15	Z15	X16	Y16	Z16	X17	Y17	Z17	X18	Y18	Z18	X19	Y19	Z19	

247	2.460	106.09561	1581.12549	801.19055	-24.92817	1639.75220	750.46057							201.37866	1519.96313	436.65662	-135.92331	1480.71069	681.69049	77.96070	1346.58301	634.30786	-43.99559	1546.98206	467.42325	242.77856	1252.33264	340.50204	-251.80788	1215.75012	640.38989	273.44150	1176.86670	543.74097	-100.79096	1071.40015	761.11523	179.81956	950.71960	537.64178	-44.26610	972.74799	694.85925	-58.90046	1001.12012	367.49063	187.32849	528.21423	431.81824	95.23743	585.93512	782.77826	76.78646	106.91897	391.48798	-92.44534	237.06010	605.29810	
248	2.470	108.33691	1580.67493	808.67365	-21.52113	1639.28235	756.72083							208.01790	1519.98413	445.72995	-131.12976	1481.65576	686.69867	82.74516	1346.98694	641.86084	-37.93737	1546.78906	473.52951	250.89432	1252.59875	349.31290	-247.07338	1215.77625	645.10901	279.17786	1177.53845	553.34528	-97.06184	1071.44299	766.71167	185.10310	951.58099	545.24524	-39.87580	972.58075	700.64343	-52.87864	1001.43378	374.57785	189.86285	526.88007	440.13400	101.69863	589.32788	791.44696	76.84763	107.36067	391.73315	-72.11409	228.69402	617.48999	
249	2.480	111.58556	1580.44165	815.87885	-19.02606	1639.14453	763.11243							214.01811	1520.11011	452.83795	-126.70075	1481.48254	692.27789	87.73589	1347.20801	649.23065	-31.79766	1546.50623	479.68845	258.70239	1252.17627	359.06561	-241.82521	1215.54321	649.79901	285.14035	1178.20093	563.11664	-92.71601	1071.30103	772.19739	189.94595	950.76135	552.98004	-37.00907	972.62195	707.12604	-46.67247	1001.46375	380.57727	193.15450	526.43872	448.69376	107.58602	592.39600	800.82666	76.89548	108.14073	392.16934	-51.69872	220.18602	631.10168	
250	2.490	113.92607	1580.07886	823.36792	-15.17303	1638.12903	769.25415							220.38353	1519.99634	461.74603	-122.30549	1481.68481	697.64423	92.84650	1346.40332	656.47253	-25.76272	1546.26501	485.99490	265.39270	1251.69006	367.87772	-238.06892	1215.46252	654.76697	290.91721	1177.85876	572.24445	-89.25385	1070.86841	778.03821	194.74019	951.20831	560.94061	-32.92204	972.30151	713.10571	-40.36573	1001.60260	387.29718	195.77649	524.68512	457.07654	113.48508	594.48236	809.01111	77.26082	108.25654	393.01999	-31.18396	211.59241	644.54004	
251	2.500	116.70323	1579.81372	830.90900	-12.82590	1637.71472	775.71759							226.65132	1519.84094	470.07993	-118.00880	1481.21887	703.23053	95.62646	1346.32300	663.07324	-19.75227	1545.91333	492.48926	272.15063	1252.12573	378.38510	-233.05508	1215.07092	659.79114	296.57758	1178.28955	581.86066	-85.35348	1070.07861	784.06525	199.99106	950.54462	567.91156	-28.75394	971.61841	719.16150	-34.64678	1001.38873	394.06595	198.64850	524.11920	466.00226	117.65382	596.10669	817.23639	77.38870	109.19606	393.45337	-10.46751	202.82628	659.21753	
252	2.510	119.85966	1579.22632	838.22607	-9.05652	1637.08765	781.99396							232.76556	1519.62244	478.45844	-112.80775	1480.36194	708.22095	99.96323	1345.86829	670.90833	-13.74701	1545.55835	499.07150	279.88623	1251.77783	387.11285	-228.82634	1214.75366	665.16699	302.03732	1178.13599	592.32971	-82.24258	1069.88354	790.25348	205.36523	950.36908	576.12195	-25.18879	971.33978	725.71741	-28.52971	1001.14734	400.91016	201.72426	523.50928	473.80515	121.63156	597.55859	825.13287	77.80355	109.23129	393.87100	9.88112	194.05891	674.38654	
253	2.520	121.81432	1579.25513	846.11096	-6.39976	1636.56372	788.78473							239.10075	1519.11829	487.73444	-109.46746	1480.39819	715.03766	104.95880	1345.75159	678.25079	-7.84395	1545.13086	505.75095	287.34695	1251.11304	395.90909	-223.96875	1214.13757	670.38751	307.60489	1178.10767	601.64465	-78.46805	1068.83936	796.33508	210.34334	950.42352	583.80078	-22.07934	970.70825	732.38263	-21.68043	1000.49060	407.72656	205.29211	523.12622	482.37488	124.43511	598.24261	833.54138	78.10522	109.26412	394.45279	30.20817	185.75772	689.93982	
254	2.530	124.52458	1578.78516	853.82861	-3.15401	1636.34229	795.30884							244.94833	1518.92126	495.79266	-105.43785	1479.96826	720.85803	109.40789	1345.30530	685.88086	-1.94881	1544.64697	512.58813	293.42334	1250.38611	405.76456	-219.70197	1213.56055	675.29706	313.01202	1177.88599	611.21301	-75.37718	1067.91125	803.28302	214.33690	949.62744	591.95068	-18.08461	970.05823	739.01160	-15.20703	1000.63580	413.65976	209.18561	522.42206	490.19214	127.02939	597.87280	840.42566	77.96103	110.06002	394.70395	49.07587	178.24188	706.07245	
255	2.540	127.33203	1578.61499	861.58533	-0.33403	1635.62146	802.11945							250.69054	1518.57813	504.87393	-101.25190	1479.04456	727.31415	114.20878	1344.66101	693.75861	3.72586	1544.27808	519.54529	300.26788	1250.18494	415.12451	-215.18333	1213.02258	680.44446	317.93222	1177.28015	621.33472	-71.58983	1067.33350	809.99933	218.83131	949.51965	600.51184	-14.74396	969.33942	746.53613	-8.75942	1000.29041	420.27640	213.42528	521.71173	498.53397	128.91740	597.39294	847.28882	77.57844	110.80026	395.53787	68.38529	171.11401	723.07269	
256	2.550	129.77521	1578.23694	869.61652	2.01556	1635.55579	808.91211							256.68488	1518.04553	514.78864	-96.64662	1478.61597	732.87646	119.12940	1345.55115	703.82117	9.32291	1543.81067	526.67853	307.12674	1249.54443	425.47943	-210.62488	1212.48596	685.76874	323.96393	1177.68884	631.76215	-68.43275	1066.23022	816.01105	223.99261	949.25977	609.07129	-11.42807	968.65680	753.58136	-2.31526	1000.00079	427.32510	217.18112	520.52576	506.53537	130.91803	595.72504	854.51788	77.57583	112.31734	396.07193	88.35429	162.92149	739.27856	
257	2.560	132.11916	1577.85718	877.77899	5.93575	1634.24084	815.64050							262.36734	1517.71582	523.01489	-92.94502	1478.34338	739.79309	123.30193	1344.76489	711.61432	14.86818	1543.35046	533.93115	313.83856	1249.67114	434.96024	-206.13564	1211.69861	691.58673	328.95120	1177.19104	641.08746	-65.64323	1065.47864	823.29956	228.89542	949.05396	618.12775	-7.92195	968.28656	761.20544	4.57508	999.22504	433.55832	221.48012	519.40442	514.57501	131.62050	593.08252	860.50391	77.32908	112.29740	396.86322	106.07282	157.15407	756.66431	
258	2.570	134.42139	1577.68091	885.79346	8.51798	1634.14233	822.58002							267.78470	1517.18713	532.24335	-89.13344	1477.38318	746.55695	127.49334	1344.11316	719.31445	20.33078	1542.74524	541.22375	319.96414	1248.60095	444.87314	-201.23483	1211.03320	697.44171	333.98508	1176.98071	651.36993	-62.43183	1064.91919	830.44305	233.69977	948.44684	627.03632	-4.76904	967.77234	769.08923	11.17529	999.20496	440.36658	226.05447	518.22003	522.91022	132.56183	590.39349	866.32996	77.65021	113.69326	398.05518	123.37181	151.94519	774.85236	
259	2.580	136.75648	1577.31104	893.94098	11.12611	1633.75000	829.68738							273.28577	1516.62756	541.89160	-85.11346	1477.01355	753.43732	131.25427	1343.51147	726.78485	25.52755	1542.17236	548.67786	325.87894	1248.03296	455.11273	-196.48642	1209.62585	703.15503	338.63004	1177.15991	661.11859	-58.77915	1063.86108	837.46918	237.12421	947.94373	636.62805	-0.64621	966.73193	776.80481	17.76485	998.72363	447.36804	230.90469	517.51227	531.46539	133.15213	587.26355	871.82654	77.71185	114.26132	398.47089	140.41141	146.48001	791.53687	
